<svg width="32" height="32" viewBox="0 0 32 32" fill="none" xmlns="http://www.w3.org/2000/svg">
  <defs>
    <linearGradient id="gradient" x1="0%" y1="0%" x2="100%" y2="100%">
      <stop offset="0%" style="stop-color:#00D4FF;stop-opacity:1" />
      <stop offset="100%" style="stop-color:#B794F6;stop-opacity:1" />
    </linearGradient>
  </defs>
  
  <!-- Background circle -->
  <circle cx="16" cy="16" r="15" fill="url(#gradient)" stroke="#1a1a1a" stroke-width="2"/>
  
  <!-- Letter S -->
  <path d="M12 8 C12 6, 14 6, 16 6 C18 6, 20 8, 20 10 C20 12, 18 12, 16 12 L16 14 C18 14, 20 16, 20 18 C20 20, 18 22, 16 22 C14 22, 12 20, 12 18" 
        stroke="#1a1a1a" 
        stroke-width="2.5" 
        stroke-linecap="round" 
        stroke-linejoin="round" 
        fill="none"/>
  
  <!-- Tech dots -->
  <circle cx="8" cy="8" r="1.5" fill="#1a1a1a" opacity="0.7"/>
  <circle cx="24" cy="8" r="1.5" fill="#1a1a1a" opacity="0.7"/>
  <circle cx="8" cy="24" r="1.5" fill="#1a1a1a" opacity="0.7"/>
  <circle cx="24" cy="24" r="1.5" fill="#1a1a1a" opacity="0.7"/>
</svg>
